<svg width="1920" height="883" viewBox="0 0 1920 883" fill="none" xmlns="http://www.w3.org/2000/svg">
<path d="M2022.61 161.41C1937.76 331.654 1552.69 504.349 1275.92 609.649C1111.07 672.851 984.719 711.954 984.719 711.954C969.688 716.147 954.63 720.967 939.599 725.787C797.592 768.511 653.789 807.015 508.188 834.681C443.216 847.316 377.618 856.928 311.448 864.144C176.685 878.604 43.6922 888.815 -92.2691 877.405C-160.862 871.959 -329.936 872.586 -354.007 786.538C-381.074 689.679 -124.755 538.06 -47.7474 492.912C97.2543 406.864 229.022 365.964 323.484 338.298C177.284 408.063 73.7817 485.097 5.78745 542.853C-83.2559 619.261 -86.2784 641.536 -82.0577 654.171C-53.7654 747.408 280.161 690.278 346.93 681.837C401.69 675.819 456.423 667.377 510.584 657.166C655.586 630.698 798.192 592.794 939.572 553.064C946.189 551.267 952.805 549.443 959.422 547.646C959.422 547.646 1102.63 506.718 1275.89 442.346C1479.25 367.135 1722.93 260.011 1827.04 146.923C1848.68 124.077 1906.47 61.5016 1887.22 26.5923C1878.2 9.13762 1852.31 4.94414 1836.68 3.1197C1856.53 0.723428 1999.73 -14.335 2035.84 52.4884C2056.89 92.1903 2031.62 142.73 2022.61 161.383V161.41Z" fill="url(#paint0_linear_1043_6113)"/>
<defs>
<linearGradient id="paint0_linear_1043_6113" x1="-614.738" y1="954.358" x2="2407" y2="-129" gradientUnits="userSpaceOnUse">
<stop offset="0.03" stop-color="#00B3FF" stop-opacity="0"/>
<stop offset="0.07" stop-color="#07ADFF"/>
<stop offset="0.11" stop-color="#0DA7FF"/>
<stop offset="0.24" stop-color="#2F89FF"/>
<stop offset="0.42" stop-color="#6659FF"/>
<stop offset="0.52" stop-color="#893BFF"/>
<stop offset="0.65" stop-color="#8531FF"/>
<stop offset="0.88" stop-color="#7D19FF"/>
<stop offset="0.94" stop-color="#7B12FF"/>
<stop offset="1" stop-color="#780AFF" stop-opacity="0"/>
</linearGradient>
</defs>
</svg>
