<svg width="18" height="18" viewBox="0 0 18 18" fill="none" xmlns="http://www.w3.org/2000/svg">
<path d="M17.2499 11.93V15.23C17.2499 16.46 16.1599 17.4 14.9399 17.23C7.59991 16.21 1.78991 10.4 0.769912 3.06001C0.599912 1.84001 1.53991 0.75001 2.76991 0.75001H6.06991C6.30643 0.748933 6.53568 0.831727 6.71693 0.983686C6.89818 1.13564 7.01971 1.34693 7.05991 1.58001L7.44991 3.77001C7.58991 4.54001 7.26991 5.32001 6.62991 5.77001L4.77991 7.36001C6.20991 9.77001 8.23991 11.78 10.6599 13.2L12.2299 11.38C12.6799 10.74 13.4599 10.42 14.2299 10.56L16.4199 10.95C16.8999 11.04 17.2499 11.45 17.2499 11.94V11.93Z" fill="white" stroke="white" stroke-width="1.5" stroke-linecap="round" stroke-linejoin="round"/>
</svg>
