<svg width="24" height="24" viewBox="0 0 24 24" fill="none" xmlns="http://www.w3.org/2000/svg">
<path d="M8.57151 4.0896C10.0897 1.3632 10.8482 0 11.983 0C13.1178 0 13.8763 1.3632 15.3945 4.0896L15.7875 4.7952C16.2189 5.5704 16.4346 5.958 16.7701 6.2136C17.1056 6.4692 17.525 6.564 18.3638 6.7536L19.1259 6.9264C22.0736 7.5948 23.5463 7.9284 23.8974 9.0576C24.2473 10.1856 23.2431 11.3628 21.2336 13.716L20.7136 14.3244C20.1432 14.9928 19.8568 15.3276 19.7286 15.7404C19.6004 16.1544 19.6435 16.6008 19.7298 17.4924L19.8089 18.3048C20.1121 21.4452 20.2642 23.0148 19.3464 23.712C18.4285 24.4092 17.0481 23.7732 14.2897 22.5012L13.5743 22.1724C12.7906 21.81 12.3988 21.63 11.983 21.63C11.5672 21.63 11.1754 21.81 10.3917 22.1724L9.67752 22.5012C6.9179 23.7732 5.53749 24.4092 4.62081 23.7132C3.70174 23.0148 3.85392 21.4452 4.15708 18.3048L4.23617 17.4936C4.32244 16.6008 4.36558 16.1544 4.23617 15.7416C4.10915 15.3276 3.82277 14.9928 3.25239 14.3256L2.73234 13.716C0.722839 11.364 -0.281312 10.1868 0.068583 9.0576C0.418478 7.9284 1.89355 7.5936 4.8413 6.9264L5.6034 6.7536C6.44099 6.564 6.85919 6.4692 7.1959 6.2136C7.53261 5.958 7.7471 5.5704 8.17848 4.7952L8.57151 4.0896Z" fill="url(#paint0_linear_156_2594)"/>
<defs>
<linearGradient id="paint0_linear_156_2594" x1="0" y1="11.9999" x2="23.966" y2="11.9999" gradientUnits="userSpaceOnUse">
<stop stop-color="#255BEC"/>
<stop offset="1" stop-color="#780AFF"/>
</linearGradient>
</defs>
</svg>
