<svg width="31" height="35" viewBox="0 0 31 35" fill="none" xmlns="http://www.w3.org/2000/svg">
<path d="M0.75 31.9106V2.75056C0.749907 2.40139 0.837572 2.05828 1.00428 1.75535C1.17098 1.45242 1.41092 1.20024 1.70022 1.02387C1.98952 0.847509 2.3181 0.753114 2.65329 0.750076C2.98848 0.747038 3.3186 0.835463 3.6108 1.00656L28.494 15.5866C28.7913 15.7604 29.0388 16.0136 29.2111 16.3201C29.3834 16.6266 29.4741 16.9754 29.4741 17.3306C29.4741 17.6857 29.3834 18.0345 29.2111 18.341C29.0388 18.6475 28.7913 18.9007 28.494 19.0746L3.6108 33.6546C3.3186 33.8256 2.98848 33.9141 2.65329 33.911C2.3181 33.908 1.98952 33.8136 1.70022 33.6372C1.41092 33.4609 1.17098 33.2087 1.00428 32.9058C0.837572 32.6028 0.749907 32.2597 0.75 31.9106Z" fill="#070F29" stroke="#070F29" stroke-width="1.5" stroke-linecap="round" stroke-linejoin="round"/>
</svg>
